<?xml version="1.0" encoding="utf-8"?>
<!-- Generator: Adobe Illustrator 18.0.0, SVG Export Plug-In . SVG Version: 6.00 Build 0)  -->
<svg version="1.1" id="Layer_1" xmlns="http://www.w3.org/2000/svg" xmlns:xlink="http://www.w3.org/1999/xlink" x="0px" y="0px"
	 viewBox="0 0 641.9 196.1" enable-background="new 0 0 641.9 196.1" xml:space="preserve">
<g>
	<g>
		<g>
			<defs>
				<path id="SVGID_1_" d="M328.1,67h60.6v107.3h-60.6V67z M358.8,188.3c-3.5,0-6.4-2.9-6.4-6.4c0-3.5,2.9-6.4,6.4-6.4
					c3.5,0,6.4,2.9,6.4,6.4C365.2,185.4,362.4,188.3,358.8,188.3z M354,58.1h9.6c0.9,0,1.6,0.6,1.6,1.5c0,0.9-0.7,1.5-1.6,1.5H354
					c-0.9,0-1.6-0.6-1.6-1.5C352.4,58.7,353.2,58.1,354,58.1z M358.8,52.9c0.7,0,1.3,0.6,1.3,1.3c0,0.7-0.6,1.3-1.3,1.3
					c-0.7,0-1.3-0.6-1.3-1.3C357.5,53.5,358.1,52.9,358.8,52.9z M382.6,47.2h-0.5c0-1-0.5,0-0.7,0h-10.5c-0.2,0-0.8-1-0.8,0h-35.3
					c-5.9,0-10.6,4.7-10.6,10.5V67H324c-0.3,0-0.8,0.3-0.8,0.5v5.8c0,0.3,0.6,0.6,0.8,0.6h0.2v7H324c-0.3,0-0.8,0.2-0.8,0.5v4.1
					c0,0.3,0.6,1.4,0.8,1.4h0.2v6H324c-0.3,0-0.8,0.3-0.8,0.6v4.1c0,0.3,0.6,1.2,0.8,1.2h0.2V182c0,5.9,4.8,10.2,10.6,10.2h47.8
					c5.9,0,10.1-4.3,10.1-10.2V57.7C392.7,51.9,388.5,47.2,382.6,47.2z"/>
			</defs>
			<use xlink:href="#SVGID_1_"  overflow="visible" fill-rule="evenodd" clip-rule="evenodd" fill="#CBCBCB"/>
			<clipPath id="SVGID_2_">
				<use xlink:href="#SVGID_1_"  overflow="visible"/>
			</clipPath>
			
				<rect x="319.2" y="42.8" clip-path="url(#SVGID_2_)" fill-rule="evenodd" clip-rule="evenodd" fill="#CBCBCB" width="77.4" height="153.3"/>
		</g>
		<rect x="328.1" y="67" fill-rule="evenodd" clip-rule="evenodd" fill="#FFFFFF" width="60.6" height="107.3"/>
		<g>
			<defs>
				<rect id="SVGID_3_" x="365.9" y="93.9" width="15.9" height="2"/>
			</defs>
			<use xlink:href="#SVGID_3_"  overflow="visible" fill-rule="evenodd" clip-rule="evenodd" fill="#CBCBCB"/>
			<clipPath id="SVGID_4_">
				<use xlink:href="#SVGID_3_"  overflow="visible"/>
			</clipPath>
			
				<rect x="362" y="89.9" clip-path="url(#SVGID_4_)" fill-rule="evenodd" clip-rule="evenodd" fill="#CBCBCB" width="23.8" height="9.8"/>
		</g>
		<g>
			<defs>
				<rect id="SVGID_5_" x="365.9" y="97.9" width="15.9" height="2"/>
			</defs>
			<use xlink:href="#SVGID_5_"  overflow="visible" fill-rule="evenodd" clip-rule="evenodd" fill="#CBCBCB"/>
			<clipPath id="SVGID_6_">
				<use xlink:href="#SVGID_5_"  overflow="visible"/>
			</clipPath>
			
				<rect x="362" y="94" clip-path="url(#SVGID_6_)" fill-rule="evenodd" clip-rule="evenodd" fill="#CBCBCB" width="23.8" height="9.8"/>
		</g>
		<g>
			<defs>
				<path id="SVGID_7_" d="M356,98.8h0.2c-0.6-4-3.7-6.1-7.6-6.7c2.2-0.8,3.7-3,3.7-5.5c0-3.2-2.6-5.8-5.8-5.8
					c-3.2,0-5.8,2.5-5.8,5.7c0,2.4,1.6,4.5,3.8,5.4c-3.7,0.6-6.4,2.9-7.4,5.7v1.2h-0.3c0-1,0.3-1,0.3-1.2V78H356V98.8z M342.9,86.5
					c0-2,1.6-3.6,3.6-3.6c2,0,3.6,1.6,3.6,3.6c0,2-1.6,3.6-3.6,3.6C344.5,90.1,342.9,88.5,342.9,86.5z M339,98.8
					c0.7-3,3.8-4.8,7.5-4.8c1.5,0,2.9,0.4,4.1,1c1.7,0.8,3,1.8,3.4,3.7H339z M334.1,99.8H358V75h-23.9V99.8z"/>
			</defs>
			<use xlink:href="#SVGID_7_"  overflow="visible" fill-rule="evenodd" clip-rule="evenodd" fill="#CBCBCB"/>
			<clipPath id="SVGID_8_">
				<use xlink:href="#SVGID_7_"  overflow="visible"/>
			</clipPath>
			
				<rect x="330.2" y="71.1" clip-path="url(#SVGID_8_)" fill-rule="evenodd" clip-rule="evenodd" fill="#CBCBCB" width="31.7" height="32.7"/>
		</g>
		<g>
			<defs>
				<path id="SVGID_9_" d="M354,98.8h-15c0.7-3,3.8-4.8,7.5-4.8c1.5,0,2.9,0.4,4.1,1C352.3,95.9,353.6,96.8,354,98.8"/>
			</defs>
			<use xlink:href="#SVGID_9_"  overflow="visible" fill-rule="evenodd" clip-rule="evenodd" fill="#CBCBCB"/>
			<clipPath id="SVGID_10_">
				<use xlink:href="#SVGID_9_"  overflow="visible"/>
			</clipPath>
			
				<rect x="335" y="90.1" clip-path="url(#SVGID_10_)" fill-rule="evenodd" clip-rule="evenodd" fill="#CBCBCB" width="22.9" height="12.6"/>
		</g>
		<g>
			<defs>
				<path id="SVGID_11_" d="M350.1,86.5c0,2-1.6,3.6-3.6,3.6c-2,0-3.6-1.6-3.6-3.6c0-2,1.6-3.6,3.6-3.6
					C348.5,82.9,350.1,84.5,350.1,86.5"/>
			</defs>
			<use xlink:href="#SVGID_11_"  overflow="visible" fill-rule="evenodd" clip-rule="evenodd" fill="#CBCBCB"/>
			<clipPath id="SVGID_12_">
				<use xlink:href="#SVGID_11_"  overflow="visible"/>
			</clipPath>
			
				<rect x="338.9" y="79" clip-path="url(#SVGID_12_)" fill-rule="evenodd" clip-rule="evenodd" fill="#CBCBCB" width="15.1" height="15.1"/>
		</g>
		<g>
			<defs>
				<rect id="SVGID_13_" x="352" y="111.7" width="29.8" height="2"/>
			</defs>
			<use xlink:href="#SVGID_13_"  overflow="visible" fill-rule="evenodd" clip-rule="evenodd" fill="#CBCBCB"/>
			<clipPath id="SVGID_14_">
				<use xlink:href="#SVGID_13_"  overflow="visible"/>
			</clipPath>
			
				<rect x="348.1" y="107.8" clip-path="url(#SVGID_14_)" fill-rule="evenodd" clip-rule="evenodd" fill="#CBCBCB" width="37.7" height="9.8"/>
		</g>
		<g>
			<defs>
				<rect id="SVGID_15_" x="352" y="116.7" width="29.8" height="2"/>
			</defs>
			<use xlink:href="#SVGID_15_"  overflow="visible" fill-rule="evenodd" clip-rule="evenodd" fill="#CBCBCB"/>
			<clipPath id="SVGID_16_">
				<use xlink:href="#SVGID_15_"  overflow="visible"/>
			</clipPath>
			
				<rect x="348.1" y="112.8" clip-path="url(#SVGID_16_)" fill-rule="evenodd" clip-rule="evenodd" fill="#CBCBCB" width="37.7" height="9.8"/>
		</g>
		<g>
			<defs>
				<rect id="SVGID_17_" x="352" y="121.7" width="29.8" height="2"/>
			</defs>
			<use xlink:href="#SVGID_17_"  overflow="visible" fill-rule="evenodd" clip-rule="evenodd" fill="#CBCBCB"/>
			<clipPath id="SVGID_18_">
				<use xlink:href="#SVGID_17_"  overflow="visible"/>
			</clipPath>
			
				<rect x="348.1" y="117.7" clip-path="url(#SVGID_18_)" fill-rule="evenodd" clip-rule="evenodd" fill="#CBCBCB" width="37.7" height="9.8"/>
		</g>
		<g>
			<defs>
				<rect id="SVGID_19_" x="352" y="130.6" width="29.8" height="2"/>
			</defs>
			<use xlink:href="#SVGID_19_"  overflow="visible" fill-rule="evenodd" clip-rule="evenodd" fill="#CBCBCB"/>
			<clipPath id="SVGID_20_">
				<use xlink:href="#SVGID_19_"  overflow="visible"/>
			</clipPath>
			
				<rect x="348.1" y="126.7" clip-path="url(#SVGID_20_)" fill-rule="evenodd" clip-rule="evenodd" fill="#CBCBCB" width="37.7" height="9.8"/>
		</g>
		<g>
			<defs>
				<rect id="SVGID_21_" x="352" y="135.1" width="29.8" height="2"/>
			</defs>
			<use xlink:href="#SVGID_21_"  overflow="visible" fill-rule="evenodd" clip-rule="evenodd" fill="#CBCBCB"/>
			<clipPath id="SVGID_22_">
				<use xlink:href="#SVGID_21_"  overflow="visible"/>
			</clipPath>
			
				<rect x="348.1" y="131.1" clip-path="url(#SVGID_22_)" fill-rule="evenodd" clip-rule="evenodd" fill="#CBCBCB" width="37.7" height="9.8"/>
		</g>
		<g>
			<defs>
				<rect id="SVGID_23_" x="352" y="139.5" width="29.8" height="2"/>
			</defs>
			<use xlink:href="#SVGID_23_"  overflow="visible" fill-rule="evenodd" clip-rule="evenodd" fill="#CBCBCB"/>
			<clipPath id="SVGID_24_">
				<use xlink:href="#SVGID_23_"  overflow="visible"/>
			</clipPath>
			
				<rect x="348.1" y="135.6" clip-path="url(#SVGID_24_)" fill-rule="evenodd" clip-rule="evenodd" fill="#CBCBCB" width="37.7" height="9.8"/>
		</g>
		<g>
			<defs>
				<rect id="SVGID_25_" x="335.1" y="111.7" width="10.9" height="2"/>
			</defs>
			<use xlink:href="#SVGID_25_"  overflow="visible" fill-rule="evenodd" clip-rule="evenodd" fill="#CBCBCB"/>
			<clipPath id="SVGID_26_">
				<use xlink:href="#SVGID_25_"  overflow="visible"/>
			</clipPath>
			
				<rect x="331.2" y="107.8" clip-path="url(#SVGID_26_)" fill-rule="evenodd" clip-rule="evenodd" fill="#CBCBCB" width="18.8" height="9.8"/>
		</g>
		<g>
			<defs>
				<rect id="SVGID_27_" x="335.1" y="116.7" width="10.9" height="2"/>
			</defs>
			<use xlink:href="#SVGID_27_"  overflow="visible" fill-rule="evenodd" clip-rule="evenodd" fill="#CBCBCB"/>
			<clipPath id="SVGID_28_">
				<use xlink:href="#SVGID_27_"  overflow="visible"/>
			</clipPath>
			
				<rect x="331.2" y="112.8" clip-path="url(#SVGID_28_)" fill-rule="evenodd" clip-rule="evenodd" fill="#CBCBCB" width="18.8" height="9.8"/>
		</g>
		<g>
			<defs>
				<rect id="SVGID_29_" x="335.1" y="121.7" width="10.9" height="2"/>
			</defs>
			<use xlink:href="#SVGID_29_"  overflow="visible" fill-rule="evenodd" clip-rule="evenodd" fill="#CBCBCB"/>
			<clipPath id="SVGID_30_">
				<use xlink:href="#SVGID_29_"  overflow="visible"/>
			</clipPath>
			
				<rect x="331.2" y="117.7" clip-path="url(#SVGID_30_)" fill-rule="evenodd" clip-rule="evenodd" fill="#CBCBCB" width="18.8" height="9.8"/>
		</g>
		<g>
			<defs>
				<rect id="SVGID_31_" x="335.1" y="130.6" width="10.9" height="2"/>
			</defs>
			<use xlink:href="#SVGID_31_"  overflow="visible" fill-rule="evenodd" clip-rule="evenodd" fill="#CBCBCB"/>
			<clipPath id="SVGID_32_">
				<use xlink:href="#SVGID_31_"  overflow="visible"/>
			</clipPath>
			
				<rect x="331.2" y="126.7" clip-path="url(#SVGID_32_)" fill-rule="evenodd" clip-rule="evenodd" fill="#CBCBCB" width="18.8" height="9.8"/>
		</g>
		<g>
			<defs>
				<rect id="SVGID_33_" x="335.1" y="139.5" width="10.9" height="2"/>
			</defs>
			<use xlink:href="#SVGID_33_"  overflow="visible" fill-rule="evenodd" clip-rule="evenodd" fill="#CBCBCB"/>
			<clipPath id="SVGID_34_">
				<use xlink:href="#SVGID_33_"  overflow="visible"/>
			</clipPath>
			
				<rect x="331.2" y="135.6" clip-path="url(#SVGID_34_)" fill-rule="evenodd" clip-rule="evenodd" fill="#CBCBCB" width="18.8" height="9.8"/>
		</g>
		<g>
			<defs>
				<rect id="SVGID_35_" x="335.1" y="135.1" width="10.9" height="2"/>
			</defs>
			<use xlink:href="#SVGID_35_"  overflow="visible" fill-rule="evenodd" clip-rule="evenodd" fill="#CBCBCB"/>
			<clipPath id="SVGID_36_">
				<use xlink:href="#SVGID_35_"  overflow="visible"/>
			</clipPath>
			
				<rect x="331.2" y="131.1" clip-path="url(#SVGID_36_)" fill-rule="evenodd" clip-rule="evenodd" fill="#CBCBCB" width="18.8" height="9.8"/>
		</g>
		<g>
			<defs>
				<rect id="SVGID_37_" x="365.9" y="75" width="15.9" height="2"/>
			</defs>
			<use xlink:href="#SVGID_37_"  overflow="visible" fill-rule="evenodd" clip-rule="evenodd" fill="#CBCBCB"/>
			<clipPath id="SVGID_38_">
				<use xlink:href="#SVGID_37_"  overflow="visible"/>
			</clipPath>
			
				<rect x="362" y="71.1" clip-path="url(#SVGID_38_)" fill-rule="evenodd" clip-rule="evenodd" fill="#CBCBCB" width="23.8" height="9.8"/>
		</g>
		<g>
			<defs>
				<rect id="SVGID_39_" x="365.9" y="79" width="15.9" height="2"/>
			</defs>
			<use xlink:href="#SVGID_39_"  overflow="visible" fill-rule="evenodd" clip-rule="evenodd" fill="#CBCBCB"/>
			<clipPath id="SVGID_40_">
				<use xlink:href="#SVGID_39_"  overflow="visible"/>
			</clipPath>
			
				<rect x="362" y="75.1" clip-path="url(#SVGID_40_)" fill-rule="evenodd" clip-rule="evenodd" fill="#CBCBCB" width="23.8" height="9.8"/>
		</g>
		<g>
			<defs>
				<rect id="SVGID_41_" x="365.9" y="83.1" width="15.9" height="2"/>
			</defs>
			<use xlink:href="#SVGID_41_"  overflow="visible" fill-rule="evenodd" clip-rule="evenodd" fill="#CBCBCB"/>
			<clipPath id="SVGID_42_">
				<use xlink:href="#SVGID_41_"  overflow="visible"/>
			</clipPath>
			
				<rect x="362" y="79.1" clip-path="url(#SVGID_42_)" fill-rule="evenodd" clip-rule="evenodd" fill="#CBCBCB" width="23.8" height="9.8"/>
		</g>
	</g>
	<g>
		<g>
			<defs>
				<polygon id="SVGID_43_" points="526.4,167.9 526.4,184.3 517.9,192 533.7,191.4 529.8,183.8 529.8,167.9 				"/>
			</defs>
			<use xlink:href="#SVGID_43_"  overflow="visible" fill-rule="evenodd" clip-rule="evenodd" fill="#5B95CE"/>
			<clipPath id="SVGID_44_">
				<use xlink:href="#SVGID_43_"  overflow="visible"/>
			</clipPath>
			<g clip-path="url(#SVGID_44_)" enable-background="new    ">
				<g>
					<defs>
						<rect id="SVGID_45_" x="517.5" y="167.2" width="16.4" height="25"/>
					</defs>
					<use xlink:href="#SVGID_45_"  overflow="visible" fill="#5B95CE"/>
					<clipPath id="SVGID_46_">
						<use xlink:href="#SVGID_45_"  overflow="visible"/>
					</clipPath>
					<g clip-path="url(#SVGID_46_)">
						<defs>
							<rect id="SVGID_47_" x="517.9" y="167.9" width="15.8" height="24.1"/>
						</defs>
						<use xlink:href="#SVGID_47_"  overflow="visible" fill-rule="evenodd" clip-rule="evenodd" fill="#5B95CE"/>
						<clipPath id="SVGID_48_">
							<use xlink:href="#SVGID_47_"  overflow="visible"/>
						</clipPath>
						<g clip-path="url(#SVGID_48_)">
							<defs>
								<rect id="SVGID_49_" x="517.5" y="167.2" width="16.4" height="25"/>
							</defs>
							<use xlink:href="#SVGID_49_"  overflow="visible" fill="#5B95CE"/>
							<clipPath id="SVGID_50_">
								<use xlink:href="#SVGID_49_"  overflow="visible"/>
							</clipPath>
							
								<rect x="514" y="164" clip-path="url(#SVGID_50_)" fill-rule="evenodd" clip-rule="evenodd" fill="#5B95CE" width="23.6" height="31.9"/>
						</g>
					</g>
				</g>
			</g>
		</g>
		<g>
			<defs>
				<path id="SVGID_51_" d="M488,95.8c56.5,0,55.9,33.3,52.5,80.4C498.7,176.1,485.7,130.7,488,95.8z"/>
			</defs>
			<use xlink:href="#SVGID_51_"  overflow="visible" fill-rule="evenodd" clip-rule="evenodd" fill="#5B95CE"/>
			<clipPath id="SVGID_52_">
				<use xlink:href="#SVGID_51_"  overflow="visible"/>
			</clipPath>
			<g clip-path="url(#SVGID_52_)" enable-background="new    ">
				<g>
					<defs>
						<rect id="SVGID_53_" x="485.5" y="95.3" width="59.4" height="81.3"/>
					</defs>
					<use xlink:href="#SVGID_53_"  overflow="visible" fill="#5B95CE"/>
					<clipPath id="SVGID_54_">
						<use xlink:href="#SVGID_53_"  overflow="visible"/>
					</clipPath>
					<g clip-path="url(#SVGID_54_)">
						<defs>
							<rect id="SVGID_55_" x="485.7" y="95.8" width="58.7" height="80.4"/>
						</defs>
						<use xlink:href="#SVGID_55_"  overflow="visible" fill-rule="evenodd" clip-rule="evenodd" fill="#5B95CE"/>
						<clipPath id="SVGID_56_">
							<use xlink:href="#SVGID_55_"  overflow="visible"/>
						</clipPath>
						<g clip-path="url(#SVGID_56_)">
							<defs>
								<rect id="SVGID_57_" x="485.5" y="95.3" width="59.4" height="81.3"/>
							</defs>
							<use xlink:href="#SVGID_57_"  overflow="visible" fill="#5B95CE"/>
							<clipPath id="SVGID_58_">
								<use xlink:href="#SVGID_57_"  overflow="visible"/>
							</clipPath>
							
								<rect x="481.8" y="91.8" clip-path="url(#SVGID_58_)" fill-rule="evenodd" clip-rule="evenodd" fill="#5B95CE" width="66.5" height="88.2"/>
						</g>
					</g>
				</g>
			</g>
		</g>
		<g>
			<defs>
				<path id="SVGID_59_" d="M549,176.1h17.5c-5.1-60.1,1.1-85.8,61.5-89.7l-8.5-54.7l-1.7-27.9L594.1,23h-72.3L498.2,4.5l-1.7,27.9
					L488,86.5c60.4,3.3,67.2,28.4,61.5,89.7h16.4H549z"/>
			</defs>
			<use xlink:href="#SVGID_59_"  overflow="visible" fill-rule="evenodd" clip-rule="evenodd" fill="#5B95CE"/>
			<clipPath id="SVGID_60_">
				<use xlink:href="#SVGID_59_"  overflow="visible"/>
			</clipPath>
			<g clip-path="url(#SVGID_60_)" enable-background="new    ">
				<g>
					<defs>
						<rect id="SVGID_61_" x="487.8" y="3.9" width="140.7" height="172.7"/>
					</defs>
					<use xlink:href="#SVGID_61_"  overflow="visible" fill="#5B95CE"/>
					<clipPath id="SVGID_62_">
						<use xlink:href="#SVGID_61_"  overflow="visible"/>
					</clipPath>
					<g clip-path="url(#SVGID_62_)">
						<defs>
							<rect id="SVGID_63_" x="488" y="3.9" width="140" height="172.2"/>
						</defs>
						<use xlink:href="#SVGID_63_"  overflow="visible" fill-rule="evenodd" clip-rule="evenodd" fill="#5B95CE"/>
						<clipPath id="SVGID_64_">
							<use xlink:href="#SVGID_63_"  overflow="visible"/>
						</clipPath>
						<g clip-path="url(#SVGID_64_)">
							<defs>
								<rect id="SVGID_65_" x="487.8" y="3.9" width="140.7" height="172.7"/>
							</defs>
							<use xlink:href="#SVGID_65_"  overflow="visible" fill="#5B95CE"/>
							<clipPath id="SVGID_66_">
								<use xlink:href="#SVGID_65_"  overflow="visible"/>
							</clipPath>
							
								<rect x="484.1" y="0" clip-path="url(#SVGID_66_)" fill-rule="evenodd" clip-rule="evenodd" fill="#5B95CE" width="147.8" height="180"/>
						</g>
					</g>
				</g>
			</g>
		</g>
		<g>
			<defs>
				<path id="SVGID_67_" d="M528.1,38.3c14,0,25.4,11,25.4,24.6c0,13.6-11.4,24.6-25.4,24.6c-14,0-25.4-11-25.4-24.6
					C502.7,49.4,514,38.3,528.1,38.3z"/>
			</defs>
			<clipPath id="SVGID_68_">
				<use xlink:href="#SVGID_67_"  overflow="visible"/>
			</clipPath>
			<g clip-path="url(#SVGID_68_)" enable-background="new    ">
				<g>
					<defs>
						<rect id="SVGID_69_" x="502.7" y="38.3" width="51.6" height="50"/>
					</defs>
					<clipPath id="SVGID_70_">
						<use xlink:href="#SVGID_69_"  overflow="visible"/>
					</clipPath>
					<g clip-path="url(#SVGID_70_)">
						<defs>
							<rect id="SVGID_71_" x="502.7" y="38.3" width="50.8" height="49.2"/>
						</defs>
						<clipPath id="SVGID_72_">
							<use xlink:href="#SVGID_71_"  overflow="visible"/>
						</clipPath>
						<g clip-path="url(#SVGID_72_)">
							<defs>
								<rect id="SVGID_73_" x="502.7" y="38.3" width="51.6" height="50"/>
							</defs>
							<clipPath id="SVGID_74_">
								<use xlink:href="#SVGID_73_"  overflow="visible"/>
							</clipPath>
							
								<rect x="498.8" y="34.4" clip-path="url(#SVGID_74_)" fill-rule="evenodd" clip-rule="evenodd" fill="#FFFFFF" width="58.6" height="57"/>
						</g>
					</g>
				</g>
			</g>
		</g>
		<g>
			<defs>
				<path id="SVGID_75_" d="M587.9,38.3c14,0,25.4,11,25.4,24.6c0,13.6-11.4,24.6-25.4,24.6c-14,0-25.4-11-25.4-24.6
					C562.5,49.4,573.9,38.3,587.9,38.3z"/>
			</defs>
			<clipPath id="SVGID_76_">
				<use xlink:href="#SVGID_75_"  overflow="visible"/>
			</clipPath>
			<g clip-path="url(#SVGID_76_)" enable-background="new    ">
				<g>
					<defs>
						<rect id="SVGID_77_" x="562.1" y="38.3" width="51.6" height="50"/>
					</defs>
					<clipPath id="SVGID_78_">
						<use xlink:href="#SVGID_77_"  overflow="visible"/>
					</clipPath>
					<g clip-path="url(#SVGID_78_)">
						<defs>
							<rect id="SVGID_79_" x="562.5" y="38.3" width="50.8" height="49.2"/>
						</defs>
						<clipPath id="SVGID_80_">
							<use xlink:href="#SVGID_79_"  overflow="visible"/>
						</clipPath>
						<g clip-path="url(#SVGID_80_)">
							<defs>
								<rect id="SVGID_81_" x="562.1" y="38.3" width="51.6" height="50"/>
							</defs>
							<clipPath id="SVGID_82_">
								<use xlink:href="#SVGID_81_"  overflow="visible"/>
							</clipPath>
							
								<rect x="558.6" y="34.4" clip-path="url(#SVGID_82_)" fill-rule="evenodd" clip-rule="evenodd" fill="#FFFFFF" width="58.6" height="57"/>
						</g>
					</g>
				</g>
			</g>
		</g>
		<g>
			<defs>
				<polygon id="SVGID_83_" points="588.5,167.9 588.5,184.3 580,192 595.8,191.4 591.9,183.8 591.9,167.9 				"/>
			</defs>
			<use xlink:href="#SVGID_83_"  overflow="visible" fill-rule="evenodd" clip-rule="evenodd" fill="#5B95CE"/>
			<clipPath id="SVGID_84_">
				<use xlink:href="#SVGID_83_"  overflow="visible"/>
			</clipPath>
			<g clip-path="url(#SVGID_84_)" enable-background="new    ">
				<g>
					<defs>
						<rect id="SVGID_85_" x="579.3" y="167.2" width="17.2" height="25"/>
					</defs>
					<use xlink:href="#SVGID_85_"  overflow="visible" fill="#5B95CE"/>
					<clipPath id="SVGID_86_">
						<use xlink:href="#SVGID_85_"  overflow="visible"/>
					</clipPath>
					<g clip-path="url(#SVGID_86_)">
						<defs>
							<rect id="SVGID_87_" x="580" y="167.9" width="15.8" height="24.1"/>
						</defs>
						<use xlink:href="#SVGID_87_"  overflow="visible" fill-rule="evenodd" clip-rule="evenodd" fill="#5B95CE"/>
						<clipPath id="SVGID_88_">
							<use xlink:href="#SVGID_87_"  overflow="visible"/>
						</clipPath>
						<g clip-path="url(#SVGID_88_)">
							<defs>
								<rect id="SVGID_89_" x="579.3" y="167.2" width="17.2" height="25"/>
							</defs>
							<use xlink:href="#SVGID_89_"  overflow="visible" fill="#5B95CE"/>
							<clipPath id="SVGID_90_">
								<use xlink:href="#SVGID_89_"  overflow="visible"/>
							</clipPath>
							
								<rect x="576.1" y="164" clip-path="url(#SVGID_90_)" fill-rule="evenodd" clip-rule="evenodd" fill="#5B95CE" width="23.6" height="31.9"/>
						</g>
					</g>
				</g>
			</g>
		</g>
		<g>
			<defs>
				<ellipse id="SVGID_91_" cx="590.2" cy="63" rx="7.9" ry="7.7"/>
			</defs>
			<use xlink:href="#SVGID_91_"  overflow="visible" fill-rule="evenodd" clip-rule="evenodd" fill="#5B95CE"/>
			<clipPath id="SVGID_92_">
				<use xlink:href="#SVGID_91_"  overflow="visible"/>
			</clipPath>
			<g clip-path="url(#SVGID_92_)" enable-background="new    ">
				<g>
					<defs>
						<rect id="SVGID_93_" x="581.6" y="54.7" width="17.2" height="16.4"/>
					</defs>
					<use xlink:href="#SVGID_93_"  overflow="visible" fill="#5B95CE"/>
					<clipPath id="SVGID_94_">
						<use xlink:href="#SVGID_93_"  overflow="visible"/>
					</clipPath>
					<g clip-path="url(#SVGID_94_)">
						<defs>
							<rect id="SVGID_95_" x="582.3" y="55.3" width="15.8" height="15.3"/>
						</defs>
						<use xlink:href="#SVGID_95_"  overflow="visible" fill-rule="evenodd" clip-rule="evenodd" fill="#5B95CE"/>
						<clipPath id="SVGID_96_">
							<use xlink:href="#SVGID_95_"  overflow="visible"/>
						</clipPath>
						<g clip-path="url(#SVGID_96_)">
							<defs>
								<rect id="SVGID_97_" x="581.6" y="54.7" width="17.2" height="16.4"/>
							</defs>
							<use xlink:href="#SVGID_97_"  overflow="visible" fill="#5B95CE"/>
							<clipPath id="SVGID_98_">
								<use xlink:href="#SVGID_97_"  overflow="visible"/>
							</clipPath>
							
								<rect x="578.4" y="51.4" clip-path="url(#SVGID_98_)" fill-rule="evenodd" clip-rule="evenodd" fill="#5B95CE" width="23.6" height="23.1"/>
						</g>
					</g>
				</g>
			</g>
		</g>
		<g>
			<defs>
				<path id="SVGID_99_" d="M627.4,95.8c-56.5,0-55.9,33.3-52.5,80.4C617.3,176.1,630.3,130.7,627.4,95.8z"/>
			</defs>
			<use xlink:href="#SVGID_99_"  overflow="visible" fill-rule="evenodd" clip-rule="evenodd" fill="#5B95CE"/>
			<clipPath id="SVGID_100_">
				<use xlink:href="#SVGID_99_"  overflow="visible"/>
			</clipPath>
			<g clip-path="url(#SVGID_100_)" enable-background="new    ">
				<g>
					<defs>
						<rect id="SVGID_101_" x="573" y="95.3" width="55.5" height="81.3"/>
					</defs>
					<use xlink:href="#SVGID_101_"  overflow="visible" fill="#5B95CE"/>
					<clipPath id="SVGID_102_">
						<use xlink:href="#SVGID_101_"  overflow="visible"/>
					</clipPath>
					<g clip-path="url(#SVGID_102_)">
						<defs>
							<rect id="SVGID_103_" x="573.6" y="95.8" width="54.2" height="80.4"/>
						</defs>
						<use xlink:href="#SVGID_103_"  overflow="visible" fill-rule="evenodd" clip-rule="evenodd" fill="#5B95CE"/>
						<clipPath id="SVGID_104_">
							<use xlink:href="#SVGID_103_"  overflow="visible"/>
						</clipPath>
						<g clip-path="url(#SVGID_104_)">
							<defs>
								<rect id="SVGID_105_" x="570.7" y="95.3" width="57.8" height="81.3"/>
							</defs>
							<use xlink:href="#SVGID_105_"  overflow="visible" fill="#5B95CE"/>
							<clipPath id="SVGID_106_">
								<use xlink:href="#SVGID_105_"  overflow="visible"/>
							</clipPath>
							
								<rect x="569.7" y="91.8" clip-path="url(#SVGID_106_)" fill-rule="evenodd" clip-rule="evenodd" fill="#5B95CE" width="62.1" height="88.2"/>
						</g>
					</g>
				</g>
			</g>
		</g>
		<g>
			<defs>
				<polygon id="SVGID_107_" points="558,74.4 572.1,87.6 558,107.2 543.9,87.6 				"/>
			</defs>
			<clipPath id="SVGID_108_">
				<use xlink:href="#SVGID_107_"  overflow="visible"/>
			</clipPath>
			<g clip-path="url(#SVGID_108_)" enable-background="new    ">
				<g>
					<defs>
						<rect id="SVGID_109_" x="543.3" y="74.2" width="28.9" height="33.6"/>
					</defs>
					<clipPath id="SVGID_110_">
						<use xlink:href="#SVGID_109_"  overflow="visible"/>
					</clipPath>
					<g clip-path="url(#SVGID_110_)">
						<defs>
							<rect id="SVGID_111_" x="543.9" y="74.4" width="28.2" height="32.8"/>
						</defs>
						<clipPath id="SVGID_112_">
							<use xlink:href="#SVGID_111_"  overflow="visible"/>
						</clipPath>
						<g clip-path="url(#SVGID_112_)">
							<defs>
								<rect id="SVGID_113_" x="543.3" y="74.2" width="28.9" height="33.6"/>
							</defs>
							<clipPath id="SVGID_114_">
								<use xlink:href="#SVGID_113_"  overflow="visible"/>
							</clipPath>
							
								<rect x="540" y="70.5" clip-path="url(#SVGID_114_)" fill-rule="evenodd" clip-rule="evenodd" fill="#FFFFFF" width="36" height="40.6"/>
						</g>
					</g>
				</g>
			</g>
		</g>
		<g>
			<defs>
				<ellipse id="SVGID_115_" cx="528.1" cy="63" rx="7.9" ry="7.7"/>
			</defs>
			<use xlink:href="#SVGID_115_"  overflow="visible" fill-rule="evenodd" clip-rule="evenodd" fill="#5B95CE"/>
			<clipPath id="SVGID_116_">
				<use xlink:href="#SVGID_115_"  overflow="visible"/>
			</clipPath>
			<g clip-path="url(#SVGID_116_)" enable-background="new    ">
				<g>
					<defs>
						<rect id="SVGID_117_" x="519.9" y="54.7" width="16.4" height="16.4"/>
					</defs>
					<use xlink:href="#SVGID_117_"  overflow="visible" fill="#5B95CE"/>
					<clipPath id="SVGID_118_">
						<use xlink:href="#SVGID_117_"  overflow="visible"/>
					</clipPath>
					<g clip-path="url(#SVGID_118_)">
						<defs>
							<rect id="SVGID_119_" x="520.2" y="55.3" width="15.8" height="15.3"/>
						</defs>
						<use xlink:href="#SVGID_119_"  overflow="visible" fill-rule="evenodd" clip-rule="evenodd" fill="#5B95CE"/>
						<clipPath id="SVGID_120_">
							<use xlink:href="#SVGID_119_"  overflow="visible"/>
						</clipPath>
						<g clip-path="url(#SVGID_120_)">
							<defs>
								<rect id="SVGID_121_" x="519.9" y="54.7" width="16.4" height="16.4"/>
							</defs>
							<use xlink:href="#SVGID_121_"  overflow="visible" fill="#5B95CE"/>
							<clipPath id="SVGID_122_">
								<use xlink:href="#SVGID_121_"  overflow="visible"/>
							</clipPath>
							
								<rect x="516.3" y="51.4" clip-path="url(#SVGID_122_)" fill-rule="evenodd" clip-rule="evenodd" fill="#5B95CE" width="23.6" height="23.1"/>
						</g>
					</g>
				</g>
			</g>
		</g>
	</g>
	<g>
		<g>
			<defs>
				<path id="SVGID_123_" d="M68,121.5v63.8c0,0.4-0.8,0.5-1.2,0.5H11.3c-0.5,0-0.9-0.1-0.9-0.5v-63.8c0-0.4,0.4-1,0.9-1h55.5
					C67.2,120.4,68,121.1,68,121.5"/>
			</defs>
			<use xlink:href="#SVGID_123_"  overflow="visible" fill-rule="evenodd" clip-rule="evenodd" fill="#FFFFFF"/>
			<clipPath id="SVGID_124_">
				<use xlink:href="#SVGID_123_"  overflow="visible"/>
			</clipPath>
			
				<rect x="6.9" y="117" clip-path="url(#SVGID_124_)" fill-rule="evenodd" clip-rule="evenodd" fill="#FFFFFF" width="64.5" height="72.3"/>
		</g>
		<g>
			<defs>
				<path id="SVGID_125_" d="M73.2,148.3c0.5,0,0.8-0.1,0.8,0.5v8.1c0,0.5-0.3,1-0.8,1h-1.8v-9.6H73.2z M73.2,167.5
					c0.5,0,0.8,0.5,0.8,1.1v8.1c0,0.5-0.3,1.3-0.8,1.3h-1.8v-10.5H73.2z M68,185.3c0,0.4-0.8,0.5-1.2,0.5H11.3
					c-0.5,0-0.9-0.1-0.9-0.5v-63.8c0-0.4,0.4-1,0.9-1h55.5c0.5,0,1.2,0.7,1.2,1V185.3z M71.4,128.3h1.8c0.5,0,0.8,0.2,0.8,0.8v8.1
					c0,0.5-0.3,1.5-0.8,1.5h-1.8V128.3z M73.2,141.4c2.6,0,5.2-1.6,5.2-4.2v-8.1c0-2.6-2.6-4.3-5.2-4.3h-1.8v-3.3
					c0-2.4-2.1-3.7-4.7-3.7H11.3c-2.6,0-4.4,1.2-4.4,3.7v63.8c0,2.4,1.8,4,4.4,4h55.5c2.5,0,4.7-1.5,4.7-4v-3.9h1.8
					c2.6,0,5.2-2.2,5.2-4.7v-8.1c0-2.6-2.6-4.6-5.2-4.6h-1.8v-1.7h1.8c2.6,0,5.2-2.8,5.2-5.3v-8.1c0-2.6-2.6-4.8-5.2-4.8h-1.8v-2.6
					H73.2z"/>
			</defs>
			<use xlink:href="#SVGID_125_"  overflow="visible" fill-rule="evenodd" clip-rule="evenodd" fill="#CBCBCB"/>
			<clipPath id="SVGID_126_">
				<use xlink:href="#SVGID_125_"  overflow="visible"/>
			</clipPath>
			
				<rect x="3.5" y="114.4" clip-path="url(#SVGID_126_)" fill-rule="evenodd" clip-rule="evenodd" fill="#CBCBCB" width="78.4" height="78.4"/>
		</g>
		<g>
			<defs>
				<path id="SVGID_127_" d="M74.1,168.6v8.1c0,0.5-0.3,1.3-0.8,1.3h-1.8v-10.5h1.8C73.8,167.5,74.1,168,74.1,168.6"/>
			</defs>
			<use xlink:href="#SVGID_127_"  overflow="visible" fill-rule="evenodd" clip-rule="evenodd" fill="#FFFFFF"/>
			<clipPath id="SVGID_128_">
				<use xlink:href="#SVGID_127_"  overflow="visible"/>
			</clipPath>
			
				<rect x="68" y="164.1" clip-path="url(#SVGID_128_)" fill-rule="evenodd" clip-rule="evenodd" fill="#FFFFFF" width="9.5" height="17.4"/>
		</g>
		<g>
			<defs>
				<path id="SVGID_129_" d="M74.1,148.8v8.1c0,0.5-0.3,1-0.8,1h-1.8v-9.6h1.8C73.8,148.3,74.1,148.3,74.1,148.8"/>
			</defs>
			<use xlink:href="#SVGID_129_"  overflow="visible" fill-rule="evenodd" clip-rule="evenodd" fill="#FFFFFF"/>
			<clipPath id="SVGID_130_">
				<use xlink:href="#SVGID_129_"  overflow="visible"/>
			</clipPath>
			
				<rect x="68" y="144.9" clip-path="url(#SVGID_130_)" fill-rule="evenodd" clip-rule="evenodd" fill="#FFFFFF" width="9.5" height="16.5"/>
		</g>
		<g>
			<defs>
				<path id="SVGID_131_" d="M74.1,129.1v8.1c0,0.5-0.3,1.5-0.8,1.5h-1.8v-10.5h1.8C73.8,128.3,74.1,128.5,74.1,129.1"/>
			</defs>
			<use xlink:href="#SVGID_131_"  overflow="visible" fill-rule="evenodd" clip-rule="evenodd" fill="#FFFFFF"/>
			<clipPath id="SVGID_132_">
				<use xlink:href="#SVGID_131_"  overflow="visible"/>
			</clipPath>
			
				<rect x="68" y="124.8" clip-path="url(#SVGID_132_)" fill-rule="evenodd" clip-rule="evenodd" fill="#FFFFFF" width="9.5" height="17.4"/>
		</g>
		<g>
			<g>
				<defs>
					<path id="SVGID_133_" d="M14.4,130.4c0,1.1-0.9,1.6-2,1.6H4.6c-1.1,0-2-0.5-2-1.6s0.9-1.6,2-1.6h7.8
						C13.5,128.8,14.4,129.3,14.4,130.4"/>
				</defs>
				<use xlink:href="#SVGID_133_"  overflow="visible" fill-rule="evenodd" clip-rule="evenodd" fill="#CBCBCB"/>
				<clipPath id="SVGID_134_">
					<use xlink:href="#SVGID_133_"  overflow="visible"/>
				</clipPath>
				
					<rect x="0" y="126.6" clip-path="url(#SVGID_134_)" fill-rule="evenodd" clip-rule="evenodd" fill="#CBCBCB" width="17" height="7.5"/>
			</g>
			<g>
				<defs>
					<path id="SVGID_135_" d="M14.4,145.8c0,1.1-0.9,1.6-2,1.6H4.6c-1.1,0-2-0.5-2-1.6s0.9-1.6,2-1.6h7.8
						C13.5,144.2,14.4,144.7,14.4,145.8"/>
				</defs>
				<use xlink:href="#SVGID_135_"  overflow="visible" fill-rule="evenodd" clip-rule="evenodd" fill="#CBCBCB"/>
				<clipPath id="SVGID_136_">
					<use xlink:href="#SVGID_135_"  overflow="visible"/>
				</clipPath>
				
					<rect x="0" y="142.1" clip-path="url(#SVGID_136_)" fill-rule="evenodd" clip-rule="evenodd" fill="#CBCBCB" width="17" height="7.5"/>
			</g>
			<g>
				<defs>
					<path id="SVGID_137_" d="M14.4,161.3c0,1.1-0.9,1.6-2,1.6H4.6c-1.1,0-2-0.5-2-1.6c0-1.1,0.9-1.6,2-1.6h7.8
						C13.5,159.7,14.4,160.2,14.4,161.3"/>
				</defs>
				<use xlink:href="#SVGID_137_"  overflow="visible" fill-rule="evenodd" clip-rule="evenodd" fill="#CBCBCB"/>
				<clipPath id="SVGID_138_">
					<use xlink:href="#SVGID_137_"  overflow="visible"/>
				</clipPath>
				
					<rect x="0" y="157.6" clip-path="url(#SVGID_138_)" fill-rule="evenodd" clip-rule="evenodd" fill="#CBCBCB" width="17" height="7.5"/>
			</g>
			<g>
				<defs>
					<path id="SVGID_139_" d="M14.4,176.8c0,1.1-0.9,1.6-2,1.6H4.6c-1.1,0-2-0.5-2-1.6s0.9-1.6,2-1.6h7.8
						C13.5,175.1,14.4,175.7,14.4,176.8"/>
				</defs>
				<use xlink:href="#SVGID_139_"  overflow="visible" fill-rule="evenodd" clip-rule="evenodd" fill="#CBCBCB"/>
				<clipPath id="SVGID_140_">
					<use xlink:href="#SVGID_139_"  overflow="visible"/>
				</clipPath>
				
					<rect x="0" y="173" clip-path="url(#SVGID_140_)" fill-rule="evenodd" clip-rule="evenodd" fill="#CBCBCB" width="17" height="7.5"/>
			</g>
		</g>
		<g>
			<g>
				<defs>
					<path id="SVGID_141_" d="M58.7,146.3c0-5.5-4.2-8.3-9.3-8.3H30.1c-5.1,0-9.3,2.8-9.3,8.3h8.9v-1.1c0-0.9,0.6-1.7,1.5-1.9h17.2
						c0.8,0.2,1.5,1,1.5,1.9v1.1H58.7"/>
				</defs>
				<use xlink:href="#SVGID_141_"  overflow="visible" fill-rule="evenodd" clip-rule="evenodd" fill="#CBCBCB"/>
				<clipPath id="SVGID_142_">
					<use xlink:href="#SVGID_141_"  overflow="visible"/>
				</clipPath>
				
					<rect x="17.4" y="134.5" clip-path="url(#SVGID_142_)" fill-rule="evenodd" clip-rule="evenodd" fill="#CBCBCB" width="44.8" height="15.2"/>
			</g>
			<g>
				<defs>
					<path id="SVGID_143_" d="M20.8,146.9v2.3c0,0,0.1,0.5,0.5,0.5h7.9c0.4,0,0.5-0.5,0.5-0.5v-2.3H20.8"/>
				</defs>
				<use xlink:href="#SVGID_143_"  overflow="visible" fill-rule="evenodd" clip-rule="evenodd" fill="#CBCBCB"/>
				<clipPath id="SVGID_144_">
					<use xlink:href="#SVGID_143_"  overflow="visible"/>
				</clipPath>
				
					<rect x="17.4" y="143.4" clip-path="url(#SVGID_144_)" fill-rule="evenodd" clip-rule="evenodd" fill="#CBCBCB" width="15.8" height="9.7"/>
			</g>
			<g>
				<defs>
					<path id="SVGID_145_" d="M49.8,146.9v2.3c0,0,0.1,0.5,0.5,0.5h7.9c0.4,0,0.5-0.5,0.5-0.5v-2.3H49.8"/>
				</defs>
				<use xlink:href="#SVGID_145_"  overflow="visible" fill-rule="evenodd" clip-rule="evenodd" fill="#CBCBCB"/>
				<clipPath id="SVGID_146_">
					<use xlink:href="#SVGID_145_"  overflow="visible"/>
				</clipPath>
				
					<rect x="46.3" y="143.4" clip-path="url(#SVGID_146_)" fill-rule="evenodd" clip-rule="evenodd" fill="#CBCBCB" width="15.8" height="9.7"/>
			</g>
			<g>
				<defs>
					<path id="SVGID_147_" d="M39.7,163.9c-3.2,0-5.9-2.8-5.9-6.3c0-3.5,2.6-6.3,5.9-6.3c3.2,0,5.9,2.8,5.9,6.3
						C45.6,161,42.9,163.9,39.7,163.9z M52.6,151.6h-5c-0.7,0-1.1-0.6-1.2-1.1l0-2.4h0V146c0-0.4-0.3-0.8-0.7-0.9H33.4
						c-0.4,0.1-0.7,0.5-0.7,0.9v2.1h0v2.3c-0.1,0.7-0.5,1.2-1.2,1.2h-4.7c-2.3,5.4-1.8,15.6-1.8,15.6h29.3
						C54.3,167.2,54.9,157,52.6,151.6z"/>
				</defs>
				<use xlink:href="#SVGID_147_"  overflow="visible" fill-rule="evenodd" clip-rule="evenodd" fill="#CBCBCB"/>
				<clipPath id="SVGID_148_">
					<use xlink:href="#SVGID_147_"  overflow="visible"/>
				</clipPath>
				
					<rect x="21.6" y="141.6" clip-path="url(#SVGID_148_)" fill-rule="evenodd" clip-rule="evenodd" fill="#CBCBCB" width="36.3" height="29"/>
			</g>
			<g>
				<defs>
					<path id="SVGID_149_" d="M39.7,153.4c2.2,0,3.9,1.9,3.9,4.2c0,2.3-1.8,4.2-3.9,4.2c-2.2,0-3.9-1.9-3.9-4.2
						C35.8,155.3,37.5,153.4,39.7,153.4"/>
				</defs>
				<use xlink:href="#SVGID_149_"  overflow="visible" fill-rule="evenodd" clip-rule="evenodd" fill="#CBCBCB"/>
				<clipPath id="SVGID_150_">
					<use xlink:href="#SVGID_149_"  overflow="visible"/>
				</clipPath>
				
					<rect x="32.3" y="149.9" clip-path="url(#SVGID_150_)" fill-rule="evenodd" clip-rule="evenodd" fill="#CBCBCB" width="14.8" height="15.3"/>
			</g>
		</g>
	</g>
	<g>
		<g>
			<defs>
				<path id="SVGID_151_" d="M236.4,133.3c3.9,0,6.6,0.5,6.6,1.1v0.3c0,0.6-2.8,1.4-6.6,1.4h-74.9c-3.9,0-10.5-0.8-10.5-1.4v-0.3
					c0-0.6,6.6-1.1,10.5-1.1H236.4"/>
			</defs>
			<use xlink:href="#SVGID_151_"  overflow="visible" fill-rule="evenodd" clip-rule="evenodd" fill="#CBCBCB"/>
			<clipPath id="SVGID_152_">
				<use xlink:href="#SVGID_151_"  overflow="visible"/>
			</clipPath>
			
				<rect x="147.2" y="131.1" clip-path="url(#SVGID_152_)" fill-rule="evenodd" clip-rule="evenodd" fill="#CBCBCB" width="99.6" height="7.1"/>
		</g>
		<line fill="none" stroke="#CBCBCB" stroke-width="3" stroke-miterlimit="10" x1="169.8" y1="142.6" x2="156.3" y2="192.5"/>
		<line fill="none" stroke="#CBCBCB" stroke-width="3" stroke-miterlimit="10" x1="156.3" y1="191.6" x2="157.5" y2="138.4"/>
		<path fill="#FFFFFF" stroke="#CBCBCB" stroke-width="3" stroke-miterlimit="10" d="M149.5,127.2v13.3c0,3.3,4,5.9,7.8,5.9
			c1.9,0,3.6-0.7,5-1.7c1.4-1.1,2.1-2.5,2.1-4.2v-13.3c0-3.3-3.4-5.9-7.2-5.9c-1.9,0-3.9,0.7-5.3,1.7
			C150.5,124,149.5,125.5,149.5,127.2z"/>
		<path fill="#FFFFFF" stroke="#CBCBCB" stroke-width="3" stroke-miterlimit="10" d="M167.6,84.4h17.1v6.6h36.2c0,0,6.5,1.9,6.5,9.8
			v24.3c0,0-0.1,8.6-6.6,8.6h-45.7c0,0-7.5,0.7-7.5-8.9V84.4z"/>
		<line fill="none" stroke="#CBCBCB" stroke-width="3" stroke-miterlimit="10" x1="239.1" y1="192.5" x2="225.7" y2="142.6"/>
		<line fill="none" stroke="#CBCBCB" stroke-width="3" stroke-miterlimit="10" x1="237.9" y1="138.4" x2="239.1" y2="191.6"/>
		
			<rect x="174.8" y="99.6" fill-rule="evenodd" clip-rule="evenodd" fill="#FFFFFF" stroke="#CBCBCB" stroke-width="2" stroke-miterlimit="10" width="18.4" height="16.8"/>
		<g>
			<defs>
				<rect id="SVGID_153_" x="200.6" y="115.2" width="18.4" height="2.1"/>
			</defs>
			<use xlink:href="#SVGID_153_"  overflow="visible" fill-rule="evenodd" clip-rule="evenodd" fill="#CBCBCB"/>
			<clipPath id="SVGID_154_">
				<use xlink:href="#SVGID_153_"  overflow="visible"/>
			</clipPath>
			
				<rect x="196.2" y="111.4" clip-path="url(#SVGID_154_)" fill-rule="evenodd" clip-rule="evenodd" fill="#CBCBCB" width="27.4" height="9.6"/>
		</g>
		<g>
			<defs>
				<rect id="SVGID_155_" x="200.6" y="120" width="9.8" height="2.1"/>
			</defs>
			<use xlink:href="#SVGID_155_"  overflow="visible" fill-rule="evenodd" clip-rule="evenodd" fill="#CBCBCB"/>
			<clipPath id="SVGID_156_">
				<use xlink:href="#SVGID_155_"  overflow="visible"/>
			</clipPath>
			
				<rect x="196.2" y="116.2" clip-path="url(#SVGID_156_)" fill-rule="evenodd" clip-rule="evenodd" fill="#CBCBCB" width="18.7" height="9.6"/>
		</g>
		<g>
			<defs>
				<rect id="SVGID_157_" x="200.6" y="100" width="18.4" height="2.1"/>
			</defs>
			<use xlink:href="#SVGID_157_"  overflow="visible" fill-rule="evenodd" clip-rule="evenodd" fill="#CBCBCB"/>
			<clipPath id="SVGID_158_">
				<use xlink:href="#SVGID_157_"  overflow="visible"/>
			</clipPath>
			
				<rect x="196.2" y="96.3" clip-path="url(#SVGID_158_)" fill-rule="evenodd" clip-rule="evenodd" fill="#CBCBCB" width="27.4" height="9.6"/>
		</g>
		<g>
			<defs>
				<rect id="SVGID_159_" x="200.6" y="104.4" width="18.4" height="2.1"/>
			</defs>
			<use xlink:href="#SVGID_159_"  overflow="visible" fill-rule="evenodd" clip-rule="evenodd" fill="#CBCBCB"/>
			<clipPath id="SVGID_160_">
				<use xlink:href="#SVGID_159_"  overflow="visible"/>
			</clipPath>
			
				<rect x="196.2" y="100.6" clip-path="url(#SVGID_160_)" fill-rule="evenodd" clip-rule="evenodd" fill="#CBCBCB" width="27.4" height="9.6"/>
		</g>
		<g>
			<defs>
				<rect id="SVGID_161_" x="200.6" y="109.2" width="18.4" height="2.1"/>
			</defs>
			<use xlink:href="#SVGID_161_"  overflow="visible" fill-rule="evenodd" clip-rule="evenodd" fill="#CBCBCB"/>
			<clipPath id="SVGID_162_">
				<use xlink:href="#SVGID_161_"  overflow="visible"/>
			</clipPath>
			
				<rect x="196.2" y="105.4" clip-path="url(#SVGID_162_)" fill-rule="evenodd" clip-rule="evenodd" fill="#CBCBCB" width="27.4" height="9.6"/>
		</g>
		<g>
			<g>
				<defs>
					<path id="SVGID_163_" d="M191.2,116.3h-14.3c0.7-2.8,3.6-4.4,7.2-4.4c1.5,0,2.8,0.3,3.9,0.9
						C189.6,113.6,190.8,114.4,191.2,116.3"/>
				</defs>
				<use xlink:href="#SVGID_163_"  overflow="visible" fill-rule="evenodd" clip-rule="evenodd" fill="#CBCBCB"/>
				<clipPath id="SVGID_164_">
					<use xlink:href="#SVGID_163_"  overflow="visible"/>
				</clipPath>
				
					<rect x="173.1" y="108.2" clip-path="url(#SVGID_164_)" fill-rule="evenodd" clip-rule="evenodd" fill="#CBCBCB" width="21.8" height="11.9"/>
			</g>
			<g>
				<defs>
					<path id="SVGID_165_" d="M187.5,107.7c0,1.9-1.5,3.4-3.4,3.4c-1.9,0-3.4-1.5-3.4-3.4c0-1.9,1.5-3.4,3.4-3.4
						C185.9,104.3,187.5,105.8,187.5,107.7"/>
				</defs>
				<use xlink:href="#SVGID_165_"  overflow="visible" fill-rule="evenodd" clip-rule="evenodd" fill="#CBCBCB"/>
				<clipPath id="SVGID_166_">
					<use xlink:href="#SVGID_165_"  overflow="visible"/>
				</clipPath>
				
					<rect x="176.8" y="100.5" clip-path="url(#SVGID_166_)" fill-rule="evenodd" clip-rule="evenodd" fill="#CBCBCB" width="14.4" height="14.4"/>
			</g>
		</g>
		<path fill="#FFFFFF" stroke="#CBCBCB" stroke-width="3" stroke-miterlimit="10" d="M245.5,127.2v13.3c0,3.3-3.8,5.9-7.6,5.9
			c-1.9,0-3.7-0.7-5.1-1.7c-1.4-1.1-2.2-2.5-2.2-4.2v-13.3c0-3.3,3.6-5.9,7.4-5.9c1.9,0,3.8,0.7,5.2,1.7
			C244.6,124,245.5,125.5,245.5,127.2z"/>
		<path fill="#FFFFFF" stroke="#CBCBCB" stroke-width="3" stroke-miterlimit="10" d="M227.4,185.4h-17.1v-6.6h-36.2
			c0,0-6.5-1.9-6.5-9.8v-24.3c0,0,0.1-8.6,6.6-8.6h45.7c0,0,7.5-0.7,7.5,8.9V185.4z"/>
		<path fill-rule="evenodd" clip-rule="evenodd" fill="#CBCBCB" d="M213.1,140.9L213.1,140.9c-0.9,0-1.6-0.7-1.6-1.6v-11
			c0-0.9,0.7-1.6,1.6-1.6l0,0c0.9,0,1.6,0.7,1.6,1.6v11C214.8,140.1,214,140.9,213.1,140.9z"/>
		<path fill-rule="evenodd" clip-rule="evenodd" fill="#CBCBCB" d="M181.7,140.9L181.7,140.9c-0.9,0-1.6-0.7-1.6-1.6v-11
			c0-0.9,0.7-1.6,1.6-1.6h0c0.9,0,1.6,0.7,1.6,1.6v11C183.3,140.1,182.6,140.9,181.7,140.9z"/>
	</g>
	<rect x="473.9" y="189" fill-rule="evenodd" clip-rule="evenodd" fill="#5B95CE" width="168" height="4"/>
</g>
</svg>
